ISO-10303-21;
HEADER;
FILE_DESCRIPTION (( 'STEP AP214' ),
    '1' );
FILE_NAME ('SERVO COVER.STEP',
    '2024-01-23T13:58:19',
    ( '' ),
    ( '' ),
    'SwSTEP 2.0',
    'SolidWorks 2023',
    '' );
FILE_SCHEMA (( 'AUTOMOTIVE_DESIGN' ));
ENDSEC;

DATA;
#1 = ORIENTED_EDGE ( 'NONE', *, *, #134, .T. ) ;
#2 = PLANE ( 'NONE',  #359 ) ;
#3 = CARTESIAN_POINT ( 'NONE',  ( 0.000000000000000000, 1.199999999999999956, 281.8817145493894145 ) ) ;
#4 = VECTOR ( 'NONE', #424, 1000.000000000000000 ) ;
#5 = ORIENTED_EDGE ( 'NONE', *, *, #312, .F. ) ;
#6 = DIRECTION ( 'NONE',  ( 0.000000000000000000, 1.000000000000000000, -0.000000000000000000 ) ) ;
#7 = APPLICATION_PROTOCOL_DEFINITION ( 'draft international standard', 'automotive_design', 1998, #535 ) ;
#8 = ADVANCED_FACE ( 'NONE', ( #173 ), #593, .F. ) ;
#9 = ORIENTED_EDGE ( 'NONE', *, *, #411, .T. ) ;
#10 = DIRECTION ( 'NONE',  ( 0.000000000000000000, 1.000000000000000000, -0.000000000000000000 ) ) ;
#11 = ORIENTED_EDGE ( 'NONE', *, *, #230, .F. ) ;
#12 = DIRECTION ( 'NONE',  ( 1.000000000000000000, -0.000000000000000000, 0.000000000000000000 ) ) ;
#13 = LINE ( 'NONE', #253, #360 ) ;
#14 = VECTOR ( 'NONE', #576, 1000.000000000000000 ) ;
#15 = CARTESIAN_POINT ( 'NONE',  ( -2.631876578177181681E-13, 0.000000000000000000, 331.8817145493890166 ) ) ;
#16 = DIRECTION ( 'NONE',  ( 0.000000000000000000, 1.000000000000000000, -0.000000000000000000 ) ) ;
#17 = SURFACE_SIDE_STYLE ('',( #310 ) ) ;
#18 = CIRCLE ( 'NONE', #506, 1.599999999999934808 ) ;
#19 = DIRECTION ( 'NONE',  ( -0.000000000000000000, -1.000000000000000000, -0.000000000000000000 ) ) ;
#20 = FACE_BOUND ( 'NONE', #228, .T. ) ;
#21 = CARTESIAN_POINT ( 'NONE',  ( 448.1887549754170550, 0.000000000000000000, 321.8817145493894714 ) ) ;
#22 = DIRECTION ( 'NONE',  ( 0.000000000000000000, 0.000000000000000000, -1.000000000000000000 ) ) ;
#23 = CARTESIAN_POINT ( 'NONE',  ( 0.000000000000000000, 1.199999999999999956, 321.8817145493894714 ) ) ;
#24 = LINE ( 'NONE', #457, #600 ) ;
#25 = EDGE_CURVE ( 'NONE', #290, #574, #24, .T. ) ;
#26 = DIRECTION ( 'NONE',  ( 0.000000000000000000, 0.000000000000000000, -1.000000000000000000 ) ) ;
#27 = EDGE_CURVE ( 'NONE', #29, #198, #546, .T. ) ;
#28 = ORIENTED_EDGE ( 'NONE', *, *, #25, .T. ) ;
#29 = VERTEX_POINT ( 'NONE', #161 ) ;
#30 = DIRECTION ( 'NONE',  ( -0.000000000000000000, -1.000000000000000000, -0.000000000000000000 ) ) ;
#31 = EDGE_LOOP ( 'NONE', ( #517, #11 ) ) ;
#32 = EDGE_LOOP ( 'NONE', ( #39, #407, #182, #239 ) ) ;
#33 = ADVANCED_FACE ( 'NONE', ( #362 ), #111, .F. ) ;
#34 = DIRECTION ( 'NONE',  ( 0.000000000000000000, 1.000000000000000000, -0.000000000000000000 ) ) ;
#35 = EDGE_CURVE ( 'NONE', #317, #278, #314, .T. ) ;
#36 = ORIENTED_EDGE ( 'NONE', *, *, #118, .F. ) ;
#37 = CARTESIAN_POINT ( 'NONE',  ( 448.1887549754170550, 1.199999999999999956, 321.8817145493894714 ) ) ;
#38 = SHAPE_DEFINITION_REPRESENTATION ( #167, #564 ) ;
#39 = ORIENTED_EDGE ( 'NONE', *, *, #609, .F. ) ;
#40 = VERTEX_POINT ( 'NONE', #466 ) ;
#41 = CARTESIAN_POINT ( 'NONE',  ( 479.5367889235231473, 1.199999999999999956, 282.9817145493894941 ) ) ;
#42 = CARTESIAN_POINT ( 'NONE',  ( 414.9367889235230678, 1.199999999999999956, 327.5817145493895168 ) ) ;
#43 = VECTOR ( 'NONE', #334, 1000.000000000000000 ) ;
#44 = AXIS2_PLACEMENT_3D ( 'NONE', #461, #463, #26 ) ;
#45 = ORIENTED_EDGE ( 'NONE', *, *, #102, .T. ) ;
#46 = DIRECTION ( 'NONE',  ( -1.000000000000000000, 0.000000000000000000, 0.000000000000000000 ) ) ;
#47 = DIRECTION ( 'NONE',  ( -0.000000000000000000, -1.000000000000000000, -0.000000000000000000 ) ) ;
#48 = ORIENTED_EDGE ( 'NONE', *, *, #477, .F. ) ;
#49 = FACE_OUTER_BOUND ( 'NONE', #530, .T. ) ;
#50 = FACE_BOUND ( 'NONE', #234, .T. ) ;
#51 = EDGE_LOOP ( 'NONE', ( #221, #326, #437, #200 ) ) ;
#52 = DIRECTION ( 'NONE',  ( 0.000000000000000000, 1.000000000000000000, -0.000000000000000000 ) ) ;
#53 = DIRECTION ( 'NONE',  ( 0.000000000000000000, 0.000000000000000000, 1.000000000000000000 ) ) ;
#54 = CLOSED_SHELL ( 'NONE', ( #33, #397, #8, #433, #495, #146, #122, #188, #192, #352, #425, #136, #534, #516, #252, #441, #418, #560 ) ) ;
#55 = VECTOR ( 'NONE', #493, 1000.000000000000000 ) ;
#56 = VECTOR ( 'NONE', #344, 1000.000000000000000 ) ;
#57 = ORIENTED_EDGE ( 'NONE', *, *, #614, .T. ) ;
#58 = LINE ( 'NONE', #450, #540 ) ;
#59 = ORIENTED_EDGE ( 'NONE', *, *, #159, .F. ) ;
#60 = DIRECTION ( 'NONE',  ( -0.000000000000000000, -1.000000000000000000, -0.000000000000000000 ) ) ;
#61 = LINE ( 'NONE', #103, #194 ) ;
#62 = AXIS2_PLACEMENT_3D ( 'NONE', #350, #101, #301 ) ;
#63 = DIRECTION ( 'NONE',  ( 0.000000000000000000, 0.000000000000000000, 1.000000000000000000 ) ) ;
#64 = DIRECTION ( 'NONE',  ( 0.000000000000000000, 0.000000000000000000, -1.000000000000000000 ) ) ;
#65 = CARTESIAN_POINT ( 'NONE',  ( 482.2367889235231360, 1.199999999999999956, 331.8817145493894145 ) ) ;
#66 = CIRCLE ( 'NONE', #340, 1.599999999999934808 ) ;
#67 = CARTESIAN_POINT ( 'NONE',  ( 414.9367889235230678, 1.199999999999999956, 329.1817145493894259 ) ) ;
#68 = DIRECTION ( 'NONE',  ( 1.000000000000000000, 0.000000000000000000, -0.000000000000000000 ) ) ;
#69 = CARTESIAN_POINT ( 'NONE',  ( 479.5367889235231473, 1.199999999999999956, 329.1817145493894259 ) ) ;
#70 = ORIENTED_EDGE ( 'NONE', *, *, #79, .F. ) ;
#71 = FACE_OUTER_BOUND ( 'NONE', #512, .T. ) ;
#72 = ORIENTED_EDGE ( 'NONE', *, *, #336, .F. ) ;
#73 = FACE_OUTER_BOUND ( 'NONE', #481, .T. ) ;
#74 = ORIENTED_EDGE ( 'NONE', *, *, #525, .T. ) ;
#75 = ORIENTED_EDGE ( 'NONE', *, *, #35, .T. ) ;
#76 = VECTOR ( 'NONE', #197, 1000.000000000000000 ) ;
#77 = PLANE ( 'NONE',  #559 ) ;
#78 = EDGE_CURVE ( 'NONE', #574, #151, #412, .T. ) ;
#79 = EDGE_CURVE ( 'NONE', #198, #386, #170, .T. ) ;
#80 = VERTEX_POINT ( 'NONE', #379 ) ;
#81 = CARTESIAN_POINT ( 'NONE',  ( 479.5367889235231473, 0.000000000000000000, 330.7817145493893918 ) ) ;
#82 = VERTEX_POINT ( 'NONE', #575 ) ;
#83 = CARTESIAN_POINT ( 'NONE',  ( 414.9367889235230678, 1.199999999999999956, 330.7817145493893918 ) ) ;
#84 = CARTESIAN_POINT ( 'NONE',  ( 482.2367889235231360, 1.199999999999999956, 0.000000000000000000 ) ) ;
#85 = EDGE_CURVE ( 'NONE', #327, #189, #471, .T. ) ;
#86 = ORIENTED_EDGE ( 'NONE', *, *, #134, .F. ) ;
#87 = CARTESIAN_POINT ( 'NONE',  ( 414.9367889235230678, 1.199999999999999956, 284.5817145493894031 ) ) ;
#88 = CARTESIAN_POINT ( 'NONE',  ( 479.5367889235231473, 1.199999999999999956, 284.5817145493894031 ) ) ;
#89 = CIRCLE ( 'NONE', #447, 1.599999999999934808 ) ;
#90 = EDGE_CURVE ( 'NONE', #29, #369, #469, .T. ) ;
#91 = CIRCLE ( 'NONE', #315, 1.599999999999934808 ) ;
#92 = ORIENTED_EDGE ( 'NONE', *, *, #27, .F. ) ;
#93 = FACE_OUTER_BOUND ( 'NONE', #243, .T. ) ;
#94 =( LENGTH_UNIT ( ) NAMED_UNIT ( * ) SI_UNIT ( .MILLI., .METRE. ) );
#95 = ORIENTED_EDGE ( 'NONE', *, *, #302, .F. ) ;
#96 = DIRECTION ( 'NONE',  ( 0.000000000000000000, 0.000000000000000000, 1.000000000000000000 ) ) ;
#97 = VERTEX_POINT ( 'NONE', #83 ) ;
#98 = CARTESIAN_POINT ( 'NONE',  ( 479.5367889235231473, 1.199999999999999956, 284.5817145493894031 ) ) ;
#99 = AXIS2_PLACEMENT_3D ( 'NONE', #343, #482, #232 ) ;
#100 = ORIENTED_EDGE ( 'NONE', *, *, #549, .F. ) ;
#101 = DIRECTION ( 'NONE',  ( 0.000000000000000000, 1.000000000000000000, -0.000000000000000000 ) ) ;
#102 = EDGE_CURVE ( 'NONE', #148, #175, #133, .T. ) ;
#103 = CARTESIAN_POINT ( 'NONE',  ( -2.631876578177181681E-13, 1.199999999999999956, 331.8817145493890166 ) ) ;
#104 = UNCERTAINTY_MEASURE_WITH_UNIT (LENGTH_MEASURE( 1.000000000000000082E-05 ), #543, 'distance_accuracy_value', 'NONE');
#105 = LINE ( 'NONE', #251, #507 ) ;
#106 = AXIS2_PLACEMENT_3D ( 'NONE', #276, #219, #364 ) ;
#107 = CARTESIAN_POINT ( 'NONE',  ( 414.9367889235230678, 1.199999999999999956, 329.1817145493894259 ) ) ;
#108 = VECTOR ( 'NONE', #284, 1000.000000000000000 ) ;
#109 = EDGE_CURVE ( 'NONE', #40, #544, #484, .T. ) ;
#110 = SURFACE_STYLE_USAGE ( .BOTH. , #17 ) ;
#111 = CYLINDRICAL_SURFACE ( 'NONE', #464, 1.599999999999934808 ) ;
#112 = FACE_BOUND ( 'NONE', #325, .T. ) ;
#113 = CIRCLE ( 'NONE', #306, 1.599999999999934808 ) ;
#114 = ORIENTED_EDGE ( 'NONE', *, *, #230, .T. ) ;
#115 = DIRECTION ( 'NONE',  ( 1.850371707708592788E-15, 0.000000000000000000, -1.000000000000000000 ) ) ;
#116 = CARTESIAN_POINT ( 'NONE',  ( 448.1887549754170550, 1.199999999999999956, 291.8817145493894145 ) ) ;
#117 = CARTESIAN_POINT ( 'NONE',  ( 414.9367889235230678, 1.199999999999999956, 327.5817145493895168 ) ) ;
#118 = EDGE_CURVE ( 'NONE', #278, #317, #366, .T. ) ;
#119 = ORIENTED_EDGE ( 'NONE', *, *, #583, .T. ) ;
#120 = CARTESIAN_POINT ( 'NONE',  ( 448.1887549754170550, 1.199999999999999956, 0.000000000000000000 ) ) ;
#121 = DIRECTION ( 'NONE',  ( -0.000000000000000000, -1.000000000000000000, -0.000000000000000000 ) ) ;
#122 = ADVANCED_FACE ( 'NONE', ( #49 ), #562, .F. ) ;
#123 = ORIENTED_EDGE ( 'NONE', *, *, #195, .T. ) ;
#124 = VERTEX_POINT ( 'NONE', #578 ) ;
#125 = VECTOR ( 'NONE', #46, 1000.000000000000000 ) ;
#126 = VERTEX_POINT ( 'NONE', #145 ) ;
#127 = MECHANICAL_DESIGN_GEOMETRIC_PRESENTATION_REPRESENTATION (  '', ( #491 ), #150 ) ;
#128 = LINE ( 'NONE', #365, #289 ) ;
#129 = ORIENTED_EDGE ( 'NONE', *, *, #85, .T. ) ;
#130 = DIRECTION ( 'NONE',  ( -0.000000000000000000, -1.000000000000000000, -0.000000000000000000 ) ) ;
#131 = CARTESIAN_POINT ( 'NONE',  ( 0.000000000000000000, 0.000000000000000000, 321.8817145493894714 ) ) ;
#132 = VERTEX_POINT ( 'NONE', #81 ) ;
#133 = LINE ( 'NONE', #331, #202 ) ;
#134 = EDGE_CURVE ( 'NONE', #544, #40, #89, .T. ) ;
#135 =( NAMED_UNIT ( * ) PLANE_ANGLE_UNIT ( ) SI_UNIT ( $, .RADIAN. ) );
#136 = ADVANCED_FACE ( 'NONE', ( #183 ), #347, .F. ) ;
#137 = ORIENTED_EDGE ( 'NONE', *, *, #451, .T. ) ;
#138 = DIRECTION ( 'NONE',  ( 0.000000000000000000, 0.000000000000000000, 1.000000000000000000 ) ) ;
#139 = FACE_BOUND ( 'NONE', #523, .T. ) ;
#140 = CIRCLE ( 'NONE', #573, 1.599999999999934808 ) ;
#141 = VERTEX_POINT ( 'NONE', #385 ) ;
#142 = DIRECTION ( 'NONE',  ( 0.000000000000000000, 1.000000000000000000, -0.000000000000000000 ) ) ;
#143 = DIRECTION ( 'NONE',  ( 0.000000000000000000, 1.000000000000000000, -0.000000000000000000 ) ) ;
#144 = ORIENTED_EDGE ( 'NONE', *, *, #261, .T. ) ;
#145 = CARTESIAN_POINT ( 'NONE',  ( 482.2367889235231360, 0.000000000000000000, 331.8817145493894145 ) ) ;
#146 = ADVANCED_FACE ( 'NONE', ( #439 ), #244, .F. ) ;
#147 = APPLICATION_PROTOCOL_DEFINITION ( 'draft international standard', 'automotive_design', 1998, #281 ) ;
#148 = VERTEX_POINT ( 'NONE', #423 ) ;
#149 = FACE_OUTER_BOUND ( 'NONE', #508, .T. ) ;
#150 =( GEOMETRIC_REPRESENTATION_CONTEXT ( 3 ) GLOBAL_UNCERTAINTY_ASSIGNED_CONTEXT ( ( #104 ) ) GLOBAL_UNIT_ASSIGNED_CONTEXT ( ( #543, #163, #216 ) ) REPRESENTATION_CONTEXT ( 'NONE', 'WORKASPACE' ) );
#151 = VERTEX_POINT ( 'NONE', #283 ) ;
#152 = DIRECTION ( 'NONE',  ( -0.000000000000000000, -1.000000000000000000, -0.000000000000000000 ) ) ;
#153 = DIRECTION ( 'NONE',  ( 0.000000000000000000, 0.000000000000000000, -1.000000000000000000 ) ) ;
#154 = UNCERTAINTY_MEASURE_WITH_UNIT (LENGTH_MEASURE( 1.000000000000000082E-05 ), #94, 'distance_accuracy_value', 'NONE');
#155 = LINE ( 'NONE', #258, #448 ) ;
#156 = CIRCLE ( 'NONE', #324, 1.599999999999934808 ) ;
#157 = DIRECTION ( 'NONE',  ( 0.000000000000000000, 1.000000000000000000, -0.000000000000000000 ) ) ;
#158 = AXIS2_PLACEMENT_3D ( 'NONE', #341, #393, #245 ) ;
#159 = EDGE_CURVE ( 'NONE', #386, #374, #479, .T. ) ;
#160 = FILL_AREA_STYLE ('',( #259 ) ) ;
#161 = CARTESIAN_POINT ( 'NONE',  ( 448.1887549754170550, 1.199999999999999956, 321.8817145493894714 ) ) ;
#162 = FACE_OUTER_BOUND ( 'NONE', #498, .T. ) ;
#163 =( NAMED_UNIT ( * ) PLANE_ANGLE_UNIT ( ) SI_UNIT ( $, .RADIAN. ) );
#164 = EDGE_CURVE ( 'NONE', #574, #29, #513, .T. ) ;
#165 = DIRECTION ( 'NONE',  ( 0.000000000000000000, 0.000000000000000000, -1.000000000000000000 ) ) ;
#166 = CARTESIAN_POINT ( 'NONE',  ( 414.9367889235230678, 1.199999999999999956, 329.1817145493894259 ) ) ;
#167 = PRODUCT_DEFINITION_SHAPE ( 'NONE', 'NONE',  #210 ) ;
#168 = ORIENTED_EDGE ( 'NONE', *, *, #329, .F. ) ;
#169 = VECTOR ( 'NONE', #153, 1000.000000000000000 ) ;
#170 = LINE ( 'NONE', #116, #426 ) ;
#171 = CARTESIAN_POINT ( 'NONE',  ( 448.1887549754170550, 0.000000000000000000, 0.000000000000000000 ) ) ;
#172 = ORIENTED_EDGE ( 'NONE', *, *, #78, .T. ) ;
#173 = FACE_OUTER_BOUND ( 'NONE', #196, .T. ) ;
#174 = LINE ( 'NONE', #408, #223 ) ;
#175 = VERTEX_POINT ( 'NONE', #238 ) ;
#176 = VERTEX_POINT ( 'NONE', #41 ) ;
#177 = DIRECTION ( 'NONE',  ( 0.000000000000000000, 0.000000000000000000, -1.000000000000000000 ) ) ;
#178 = ORIENTED_EDGE ( 'NONE', *, *, #261, .F. ) ;
#179 = DIRECTION ( 'NONE',  ( 1.000000000000000000, -0.000000000000000000, 0.000000000000000000 ) ) ;
#180 = AXIS2_PLACEMENT_3D ( 'NONE', #98, #305, #64 ) ;
#181 = LINE ( 'NONE', #332, #613 ) ;
#182 = ORIENTED_EDGE ( 'NONE', *, *, #302, .T. ) ;
#183 = FACE_OUTER_BOUND ( 'NONE', #250, .T. ) ;
#184 = CARTESIAN_POINT ( 'NONE',  ( 452.1887549754169981, 1.199999999999999956, 321.8817145493894714 ) ) ;
#185 = ORIENTED_EDGE ( 'NONE', *, *, #164, .F. ) ;
#186 = DIRECTION ( 'NONE',  ( 0.000000000000000000, 1.000000000000000000, -0.000000000000000000 ) ) ;
#187 = CARTESIAN_POINT ( 'NONE',  ( 0.000000000000000000, 0.000000000000000000, 0.000000000000000000 ) ) ;
#188 = ADVANCED_FACE ( 'NONE', ( #432 ), #618, .F. ) ;
#189 = VERTEX_POINT ( 'NONE', #339 ) ;
#190 = DIRECTION ( 'NONE',  ( 1.000000000000000000, 0.000000000000000000, -0.000000000000000000 ) ) ;
#191 = CARTESIAN_POINT ( 'NONE',  ( 412.2367889235231360, 0.000000000000000000, -0.000000000000000000 ) ) ;
#192 = ADVANCED_FACE ( 'NONE', ( #93 ), #2, .F. ) ;
#193 = VECTOR ( 'NONE', #179, 1000.000000000000000 ) ;
#194 = VECTOR ( 'NONE', #398, 1000.000000000000000 ) ;
#195 = EDGE_CURVE ( 'NONE', #132, #384, #438, .T. ) ;
#196 = EDGE_LOOP ( 'NONE', ( #474, #415, #36, #460 ) ) ;
#197 = DIRECTION ( 'NONE',  ( -1.000000000000000000, 0.000000000000000000, 0.000000000000000000 ) ) ;
#198 = VERTEX_POINT ( 'NONE', #488 ) ;
#199 = DIRECTION ( 'NONE',  ( 1.000000000000000000, 0.000000000000000000, 0.000000000000000000 ) ) ;
#200 = ORIENTED_EDGE ( 'NONE', *, *, #233, .F. ) ;
#201 = CARTESIAN_POINT ( 'NONE',  ( 414.9367889235230678, 0.000000000000000000, 327.5817145493895168 ) ) ;
#202 = VECTOR ( 'NONE', #138, 1000.000000000000000 ) ;
#203 = VECTOR ( 'NONE', #489, 1000.000000000000000 ) ;
#204 = PRODUCT_DEFINITION_FORMATION_WITH_SPECIFIED_SOURCE ( 'ANY', '', #262, .NOT_KNOWN. ) ;
#205 = LINE ( 'NONE', #401, #169 ) ;
#206 = CARTESIAN_POINT ( 'NONE',  ( 414.9367889235230678, 1.199999999999999956, 282.9817145493894941 ) ) ;
#207 = LINE ( 'NONE', #206, #203 ) ;
#208 = CIRCLE ( 'NONE', #529, 1.599999999999934808 ) ;
#209 = VECTOR ( 'NONE', #545, 1000.000000000000000 ) ;
#210 = PRODUCT_DEFINITION ( 'UNKNOWN', '', #204, #538 ) ;
#211 =( GEOMETRIC_REPRESENTATION_CONTEXT ( 3 ) GLOBAL_UNCERTAINTY_ASSIGNED_CONTEXT ( ( #154 ) ) GLOBAL_UNIT_ASSIGNED_CONTEXT ( ( #94, #135, #526 ) ) REPRESENTATION_CONTEXT ( 'NONE', 'WORKASPACE' ) );
#212 = DIRECTION ( 'NONE',  ( 0.000000000000000000, 1.000000000000000000, -0.000000000000000000 ) ) ;
#213 = LINE ( 'NONE', #303, #454 ) ;
#214 = FACE_OUTER_BOUND ( 'NONE', #444, .T. ) ;
#215 = EDGE_CURVE ( 'NONE', #82, #327, #532, .T. ) ;
#216 =( NAMED_UNIT ( * ) SI_UNIT ( $, .STERADIAN. ) SOLID_ANGLE_UNIT ( ) );
#217 = EDGE_LOOP ( 'NONE', ( #275, #337, #231, #95 ) ) ;
#218 = DIRECTION ( 'NONE',  ( 0.000000000000000000, -0.000000000000000000, 1.000000000000000000 ) ) ;
#219 = DIRECTION ( 'NONE',  ( 0.000000000000000000, 1.000000000000000000, -0.000000000000000000 ) ) ;
#220 = FACE_OUTER_BOUND ( 'NONE', #509, .T. ) ;
#221 = ORIENTED_EDGE ( 'NONE', *, *, #336, .T. ) ;
#222 = EDGE_CURVE ( 'NONE', #224, #124, #208, .T. ) ;
#223 = VECTOR ( 'NONE', #371, 1000.000000000000000 ) ;
#224 = VERTEX_POINT ( 'NONE', #354 ) ;
#225 = ORIENTED_EDGE ( 'NONE', *, *, #27, .T. ) ;
#226 = DIRECTION ( 'NONE',  ( -0.000000000000000000, -1.000000000000000000, -0.000000000000000000 ) ) ;
#227 = ORIENTED_EDGE ( 'NONE', *, *, #109, .T. ) ;
#228 = EDGE_LOOP ( 'NONE', ( #569, #168 ) ) ;
#229 = CARTESIAN_POINT ( 'NONE',  ( 452.1887549754176234, 1.199999999999999956, 8.367172787504859054E-13 ) ) ;
#230 = EDGE_CURVE ( 'NONE', #97, #617, #297, .T. ) ;
#231 = ORIENTED_EDGE ( 'NONE', *, *, #525, .F. ) ;
#232 = DIRECTION ( 'NONE',  ( -1.000000000000000000, 0.000000000000000000, -0.000000000000000000 ) ) ;
#233 = EDGE_CURVE ( 'NONE', #80, #384, #213, .T. ) ;
#234 = EDGE_LOOP ( 'NONE', ( #1, #227 ) ) ;
#235 = CARTESIAN_POINT ( 'NONE',  ( 482.2367889235231360, 1.199999999999999956, 0.000000000000000000 ) ) ;
#236 = AXIS2_PLACEMENT_3D ( 'NONE', #497, #316, #595 ) ;
#237 = ORIENTED_EDGE ( 'NONE', *, *, #598, .T. ) ;
#238 = CARTESIAN_POINT ( 'NONE',  ( 412.2367889235231360, 1.199999999999999956, 331.8817145493893577 ) ) ;
#239 = ORIENTED_EDGE ( 'NONE', *, *, #222, .F. ) ;
#240 = DIRECTION ( 'NONE',  ( -1.000000000000000000, 0.000000000000000000, 0.000000000000000000 ) ) ;
#241 = PLANE ( 'NONE',  #390 ) ;
#242 = EDGE_CURVE ( 'NONE', #606, #126, #358, .T. ) ;
#243 = EDGE_LOOP ( 'NONE', ( #129, #442, #503, #428 ) ) ;
#244 = PLANE ( 'NONE',  #246 ) ;
#245 = DIRECTION ( 'NONE',  ( 1.000000000000000000, 0.000000000000000000, 0.000000000000000000 ) ) ;
#246 = AXIS2_PLACEMENT_3D ( 'NONE', #382, #567, #279 ) ;
#247 = AXIS2_PLACEMENT_3D ( 'NONE', #88, #440, #280 ) ;
#248 = EDGE_LOOP ( 'NONE', ( #394, #225, #431, #28 ) ) ;
#249 = DIRECTION ( 'NONE',  ( -0.000000000000000000, -1.000000000000000000, -0.000000000000000000 ) ) ;
#250 = EDGE_LOOP ( 'NONE', ( #100, #603, #416, #342 ) ) ;
#251 = CARTESIAN_POINT ( 'NONE',  ( 0.000000000000000000, 1.199999999999999956, 291.8817145493894145 ) ) ;
#252 = ADVANCED_FACE ( 'NONE', ( #581 ), #446, .F. ) ;
#253 = CARTESIAN_POINT ( 'NONE',  ( 479.5367889235231473, 1.199999999999999956, 330.7817145493893918 ) ) ;
#254 = EDGE_CURVE ( 'NONE', #198, #290, #105, .T. ) ;
#255 = VECTOR ( 'NONE', #599, 1000.000000000000000 ) ;
#256 = CIRCLE ( 'NONE', #247, 1.599999999999934808 ) ;
#257 = DIRECTION ( 'NONE',  ( 0.000000000000000000, 0.000000000000000000, 1.000000000000000000 ) ) ;
#258 = CARTESIAN_POINT ( 'NONE',  ( 414.9367889235230678, 1.199999999999999956, 330.7817145493893918 ) ) ;
#259 = FILL_AREA_STYLE_COLOUR ( '', #473 ) ;
#260 = VERTEX_POINT ( 'NONE', #486 ) ;
#261 = EDGE_CURVE ( 'NONE', #175, #381, #61, .T. ) ;
#262 = PRODUCT ( 'SERVO COVER', 'SERVO COVER', '', ( #579 ) ) ;
#263 = FACE_OUTER_BOUND ( 'NONE', #552, .T. ) ;
#264 = VECTOR ( 'NONE', #492, 1000.000000000000000 ) ;
#265 = VECTOR ( 'NONE', #604, 1000.000000000000000 ) ;
#266 = FACE_OUTER_BOUND ( 'NONE', #51, .T. ) ;
#267 = ORIENTED_EDGE ( 'NONE', *, *, #90, .F. ) ;
#268 = FACE_BOUND ( 'NONE', #566, .T. ) ;
#269 = DIRECTION ( 'NONE',  ( 0.000000000000000000, 0.000000000000000000, 1.000000000000000000 ) ) ;
#270 = ORIENTED_EDGE ( 'NONE', *, *, #565, .T. ) ;
#271 = CYLINDRICAL_SURFACE ( 'NONE', #44, 1.599999999999934808 ) ;
#272 = ORIENTED_EDGE ( 'NONE', *, *, #215, .F. ) ;
#273 = DIRECTION ( 'NONE',  ( 0.000000000000000000, 1.000000000000000000, -0.000000000000000000 ) ) ;
#274 = AXIS2_PLACEMENT_3D ( 'NONE', #235, #240, #570 ) ;
#275 = ORIENTED_EDGE ( 'NONE', *, *, #588, .T. ) ;
#276 = CARTESIAN_POINT ( 'NONE',  ( 414.9367889235230678, 0.000000000000000000, 329.1817145493894259 ) ) ;
#277 = DIRECTION ( 'NONE',  ( 0.000000000000000000, 0.000000000000000000, -1.000000000000000000 ) ) ;
#278 = VERTEX_POINT ( 'NONE', #201 ) ;
#279 = DIRECTION ( 'NONE',  ( 0.000000000000000000, 0.000000000000000000, 1.000000000000000000 ) ) ;
#280 = DIRECTION ( 'NONE',  ( 0.000000000000000000, 0.000000000000000000, 1.000000000000000000 ) ) ;
#281 = APPLICATION_CONTEXT ( 'automotive_design' ) ;
#282 = ORIENTED_EDGE ( 'NONE', *, *, #304, .F. ) ;
#283 = CARTESIAN_POINT ( 'NONE',  ( 452.1887549754169981, 0.000000000000000000, 321.8817145493894714 ) ) ;
#284 = DIRECTION ( 'NONE',  ( -1.000000000000000000, 0.000000000000000000, 0.000000000000000000 ) ) ;
#285 = EDGE_CURVE ( 'NONE', #97, #317, #155, .T. ) ;
#286 = ORIENTED_EDGE ( 'NONE', *, *, #585, .F. ) ;
#287 = AXIS2_PLACEMENT_3D ( 'NONE', #294, #6, #616 ) ;
#288 = DIRECTION ( 'NONE',  ( 0.000000000000000000, 0.000000000000000000, -1.000000000000000000 ) ) ;
#289 = VECTOR ( 'NONE', #47, 1000.000000000000000 ) ;
#290 = VERTEX_POINT ( 'NONE', #586 ) ;
#291 = CARTESIAN_POINT ( 'NONE',  ( 0.000000000000000000, 1.199999999999999956, 281.8817145493894145 ) ) ;
#292 = FACE_BOUND ( 'NONE', #470, .T. ) ;
#293 = ORIENTED_EDGE ( 'NONE', *, *, #159, .T. ) ;
#294 = CARTESIAN_POINT ( 'NONE',  ( 414.9367889235230678, 0.000000000000000000, 329.1817145493894259 ) ) ;
#295 = ORIENTED_EDGE ( 'NONE', *, *, #357, .F. ) ;
#296 = PLANE ( 'NONE',  #591 ) ;
#297 = CIRCLE ( 'NONE', #376, 1.599999999999934808 ) ;
#298 = AXIS2_PLACEMENT_3D ( 'NONE', #496, #273, #499 ) ;
#299 = AXIS2_PLACEMENT_3D ( 'NONE', #348, #522, #515 ) ;
#300 = ORIENTED_EDGE ( 'NONE', *, *, #549, .T. ) ;
#301 = DIRECTION ( 'NONE',  ( 0.000000000000000000, 0.000000000000000000, 1.000000000000000000 ) ) ;
#302 = EDGE_CURVE ( 'NONE', #176, #124, #58, .T. ) ;
#303 = CARTESIAN_POINT ( 'NONE',  ( 479.5367889235231473, 1.199999999999999956, 327.5817145493895168 ) ) ;
#304 = EDGE_CURVE ( 'NONE', #527, #132, #13, .T. ) ;
#305 = DIRECTION ( 'NONE',  ( -0.000000000000000000, -1.000000000000000000, -0.000000000000000000 ) ) ;
#306 = AXIS2_PLACEMENT_3D ( 'NONE', #467, #34, #421 ) ;
#307 = EDGE_CURVE ( 'NONE', #396, #544, #207, .T. ) ;
#308 = DIRECTION ( 'NONE',  ( 0.000000000000000000, 0.000000000000000000, 1.000000000000000000 ) ) ;
#309 = LINE ( 'NONE', #65, #55 ) ;
#310 = SURFACE_STYLE_FILL_AREA ( #160 ) ;
#311 = ORIENTED_EDGE ( 'NONE', *, *, #242, .F. ) ;
#312 = EDGE_CURVE ( 'NONE', #126, #327, #205, .T. ) ;
#313 = LINE ( 'NONE', #171, #209 ) ;
#314 = CIRCLE ( 'NONE', #106, 1.599999999999934808 ) ;
#315 = AXIS2_PLACEMENT_3D ( 'NONE', #107, #157, #539 ) ;
#316 = DIRECTION ( 'NONE',  ( -0.000000000000000000, -1.000000000000000000, -0.000000000000000000 ) ) ;
#317 = VERTEX_POINT ( 'NONE', #355 ) ;
#318 = DIRECTION ( 'NONE',  ( -1.000000000000000000, 0.000000000000000000, -7.930164461608260440E-16 ) ) ;
#319 = DIRECTION ( 'NONE',  ( -0.000000000000000000, -1.000000000000000000, -0.000000000000000000 ) ) ;
#320 = CYLINDRICAL_SURFACE ( 'NONE', #400, 1.599999999999934808 ) ;
#321 = ORIENTED_EDGE ( 'NONE', *, *, #78, .F. ) ;
#322 = CARTESIAN_POINT ( 'NONE',  ( 479.5367889235231473, 1.199999999999999956, 284.5817145493894031 ) ) ;
#323 = DIRECTION ( 'NONE',  ( -0.000000000000000000, -1.000000000000000000, -0.000000000000000000 ) ) ;
#324 = AXIS2_PLACEMENT_3D ( 'NONE', #402, #490, #63 ) ;
#325 = EDGE_LOOP ( 'NONE', ( #468, #487 ) ) ;
#326 = ORIENTED_EDGE ( 'NONE', *, *, #304, .T. ) ;
#327 = VERTEX_POINT ( 'NONE', #445 ) ;
#328 = CARTESIAN_POINT ( 'NONE',  ( 452.1887549754176234, 0.000000000000000000, 8.367172787504859054E-13 ) ) ;
#329 = EDGE_CURVE ( 'NONE', #260, #396, #156, .T. ) ;
#330 = ORIENTED_EDGE ( 'NONE', *, *, #312, .T. ) ;
#331 = CARTESIAN_POINT ( 'NONE',  ( 412.2367889235231360, 1.199999999999999956, 0.000000000000000000 ) ) ;
#332 = CARTESIAN_POINT ( 'NONE',  ( 412.2367889235231360, 1.199999999999999956, 281.8817145493894145 ) ) ;
#333 = EDGE_LOOP ( 'NONE', ( #74, #582 ) ) ;
#334 = DIRECTION ( 'NONE',  ( -0.000000000000000000, -1.000000000000000000, -0.000000000000000000 ) ) ;
#335 = FACE_BOUND ( 'NONE', #333, .T. ) ;
#336 = EDGE_CURVE ( 'NONE', #80, #527, #66, .T. ) ;
#337 = ORIENTED_EDGE ( 'NONE', *, *, #609, .T. ) ;
#338 = AXIS2_PLACEMENT_3D ( 'NONE', #87, #130, #288 ) ;
#339 = CARTESIAN_POINT ( 'NONE',  ( 412.2367889235231360, 0.000000000000000000, 281.8817145493894145 ) ) ;
#340 = AXIS2_PLACEMENT_3D ( 'NONE', #590, #537, #257 ) ;
#341 = CARTESIAN_POINT ( 'NONE',  ( 0.000000000000000000, 0.000000000000000000, 0.000000000000000000 ) ) ;
#342 = ORIENTED_EDGE ( 'NONE', *, *, #109, .F. ) ;
#343 = CARTESIAN_POINT ( 'NONE',  ( 0.000000000000000000, 1.199999999999999956, 291.8817145493894145 ) ) ;
#344 = DIRECTION ( 'NONE',  ( 0.000000000000000000, 0.000000000000000000, 1.000000000000000000 ) ) ;
#345 = EDGE_CURVE ( 'NONE', #617, #97, #91, .T. ) ;
#346 = ORIENTED_EDGE ( 'NONE', *, *, #555, .T. ) ;
#347 = CYLINDRICAL_SURFACE ( 'NONE', #338, 1.599999999999934808 ) ;
#348 = CARTESIAN_POINT ( 'NONE',  ( 414.9367889235230678, 1.199999999999999956, 284.5817145493894031 ) ) ;
#349 = ORIENTED_EDGE ( 'NONE', *, *, #409, .T. ) ;
#350 = CARTESIAN_POINT ( 'NONE',  ( 479.5367889235231473, 1.199999999999999956, 284.5817145493894031 ) ) ;
#351 = VECTOR ( 'NONE', #528, 1000.000000000000000 ) ;
#352 = ADVANCED_FACE ( 'NONE', ( #149 ), #296, .F. ) ;
#353 = ORIENTED_EDGE ( 'NONE', *, *, #285, .F. ) ;
#354 = CARTESIAN_POINT ( 'NONE',  ( 479.5367889235231473, 0.000000000000000000, 286.1817145493893690 ) ) ;
#355 = CARTESIAN_POINT ( 'NONE',  ( 414.9367889235230678, 0.000000000000000000, 330.7817145493893918 ) ) ;
#356 = EDGE_CURVE ( 'NONE', #141, #176, #531, .T. ) ;
#357 = EDGE_CURVE ( 'NONE', #527, #80, #18, .T. ) ;
#358 = LINE ( 'NONE', #15, #264 ) ;
#359 = AXIS2_PLACEMENT_3D ( 'NONE', #291, #435, #190 ) ;
#360 = VECTOR ( 'NONE', #249, 1000.000000000000000 ) ;
#361 = CARTESIAN_POINT ( 'NONE',  ( 452.1887549754170550, 0.000000000000000000, 291.8817145493894145 ) ) ;
#362 = FACE_OUTER_BOUND ( 'NONE', #217, .T. ) ;
#363 = CARTESIAN_POINT ( 'NONE',  ( 414.9367889235230678, 1.199999999999999956, 282.9817145493894941 ) ) ;
#364 = DIRECTION ( 'NONE',  ( 0.000000000000000000, 0.000000000000000000, 1.000000000000000000 ) ) ;
#365 = CARTESIAN_POINT ( 'NONE',  ( 414.9367889235230678, 1.199999999999999956, 286.1817145493893690 ) ) ;
#366 = CIRCLE ( 'NONE', #287, 1.599999999999934808 ) ;
#367 = CARTESIAN_POINT ( 'NONE',  ( 452.1887549754169981, 1.199999999999999956, 321.8817145493894714 ) ) ;
#368 = CARTESIAN_POINT ( 'NONE',  ( -2.631876578177181681E-13, 1.199999999999999956, 331.8817145493890166 ) ) ;
#369 = VERTEX_POINT ( 'NONE', #21 ) ;
#370 = DIRECTION ( 'NONE',  ( 0.000000000000000000, 0.000000000000000000, -1.000000000000000000 ) ) ;
#371 = DIRECTION ( 'NONE',  ( -0.000000000000000000, -1.000000000000000000, -0.000000000000000000 ) ) ;
#372 = EDGE_CURVE ( 'NONE', #381, #126, #309, .T. ) ;
#373 = ORIENTED_EDGE ( 'NONE', *, *, #118, .T. ) ;
#374 = VERTEX_POINT ( 'NONE', #361 ) ;
#375 = CARTESIAN_POINT ( 'NONE',  ( 414.9367889235230678, 0.000000000000000000, 282.9817145493894941 ) ) ;
#376 = AXIS2_PLACEMENT_3D ( 'NONE', #584, #10, #403 ) ;
#377 = CIRCLE ( 'NONE', #299, 1.599999999999934808 ) ;
#378 = ORIENTED_EDGE ( 'NONE', *, *, #555, .F. ) ;
#379 = CARTESIAN_POINT ( 'NONE',  ( 479.5367889235231473, 1.199999999999999956, 327.5817145493895168 ) ) ;
#380 = FACE_OUTER_BOUND ( 'NONE', #615, .T. ) ;
#381 = VERTEX_POINT ( 'NONE', #452 ) ;
#382 = CARTESIAN_POINT ( 'NONE',  ( 448.1887549754170550, 1.199999999999999956, 0.000000000000000000 ) ) ;
#383 = LINE ( 'NONE', #3, #4 ) ;
#384 = VERTEX_POINT ( 'NONE', #542 ) ;
#385 = CARTESIAN_POINT ( 'NONE',  ( 479.5367889235231473, 1.199999999999999956, 286.1817145493893690 ) ) ;
#386 = VERTEX_POINT ( 'NONE', #592 ) ;
#387 = AXIS2_PLACEMENT_3D ( 'NONE', #67, #19, #370 ) ;
#388 = CARTESIAN_POINT ( 'NONE',  ( 479.5367889235231473, 0.000000000000000000, 329.1817145493894259 ) ) ;
#389 = CARTESIAN_POINT ( 'NONE',  ( 412.2367889235231360, 0.000000000000000000, 331.8817145493893577 ) ) ;
#390 = AXIS2_PLACEMENT_3D ( 'NONE', #187, #480, #53 ) ;
#391 = EDGE_LOOP ( 'NONE', ( #349, #70, #92, #577 ) ) ;
#392 = DIRECTION ( 'NONE',  ( 0.000000000000000000, 0.000000000000000000, 1.000000000000000000 ) ) ;
#393 = DIRECTION ( 'NONE',  ( 0.000000000000000000, 0.000000000000000000, 1.000000000000000000 ) ) ;
#394 = ORIENTED_EDGE ( 'NONE', *, *, #164, .T. ) ;
#395 = DIRECTION ( 'NONE',  ( 0.000000000000000000, 0.000000000000000000, -1.000000000000000000 ) ) ;
#396 = VERTEX_POINT ( 'NONE', #363 ) ;
#397 = ADVANCED_FACE ( 'NONE', ( #266 ), #459, .F. ) ;
#398 = DIRECTION ( 'NONE',  ( 1.000000000000000000, 0.000000000000000000, 7.930164461608260440E-16 ) ) ;
#399 = AXIS2_PLACEMENT_3D ( 'NONE', #524, #186, #392 ) ;
#400 = AXIS2_PLACEMENT_3D ( 'NONE', #594, #30, #277 ) ;
#401 = CARTESIAN_POINT ( 'NONE',  ( 482.2367889235231360, 0.000000000000000000, 0.000000000000000000 ) ) ;
#402 = CARTESIAN_POINT ( 'NONE',  ( 414.9367889235230678, 1.199999999999999956, 284.5817145493894031 ) ) ;
#403 = DIRECTION ( 'NONE',  ( 0.000000000000000000, 0.000000000000000000, 1.000000000000000000 ) ) ;
#404 = PRESENTATION_LAYER_ASSIGNMENT (  '', '', ( #491 ) ) ;
#405 = MANIFOLD_SOLID_BREP ( 'Dodanie-wyci¹gniêcie1', #54 ) ;
#406 = PRESENTATION_STYLE_ASSIGNMENT (( #110 ) ) ;
#407 = ORIENTED_EDGE ( 'NONE', *, *, #356, .T. ) ;
#408 = CARTESIAN_POINT ( 'NONE',  ( 452.1887549754170550, 1.199999999999999956, 291.8817145493894145 ) ) ;
#409 = EDGE_CURVE ( 'NONE', #369, #386, #313, .T. ) ;
#410 = EDGE_LOOP ( 'NONE', ( #330, #272, #378, #494 ) ) ;
#411 = EDGE_CURVE ( 'NONE', #374, #151, #501, .T. ) ;
#412 = LINE ( 'NONE', #367, #255 ) ;
#413 = FACE_OUTER_BOUND ( 'NONE', #462, .T. ) ;
#414 = AXIS2_PLACEMENT_3D ( 'NONE', #229, #597, #115 ) ;
#415 = ORIENTED_EDGE ( 'NONE', *, *, #285, .T. ) ;
#416 = ORIENTED_EDGE ( 'NONE', *, *, #307, .T. ) ;
#417 = FACE_BOUND ( 'NONE', #248, .T. ) ;
#418 = ADVANCED_FACE ( 'NONE', ( #112, #268, #504, #20, #214, #417 ), #511, .T. ) ;
#419 = ORIENTED_EDGE ( 'NONE', *, *, #25, .F. ) ;
#420 = ORIENTED_EDGE ( 'NONE', *, *, #598, .F. ) ;
#421 = DIRECTION ( 'NONE',  ( 0.000000000000000000, 0.000000000000000000, 1.000000000000000000 ) ) ;
#422 = ORIENTED_EDGE ( 'NONE', *, *, #411, .F. ) ;
#423 = CARTESIAN_POINT ( 'NONE',  ( 412.2367889235231360, 1.199999999999999956, 281.8817145493894145 ) ) ;
#424 = DIRECTION ( 'NONE',  ( -1.000000000000000000, 0.000000000000000000, 0.000000000000000000 ) ) ;
#425 = ADVANCED_FACE ( 'NONE', ( #71 ), #77, .F. ) ;
#426 = VECTOR ( 'NONE', #319, 1000.000000000000000 ) ;
#427 = VECTOR ( 'NONE', #121, 1000.000000000000000 ) ;
#428 = ORIENTED_EDGE ( 'NONE', *, *, #215, .T. ) ;
#429 = CARTESIAN_POINT ( 'NONE',  ( 0.000000000000000000, 0.000000000000000000, 281.8817145493894145 ) ) ;
#430 = FACE_BOUND ( 'NONE', #605, .T. ) ;
#431 = ORIENTED_EDGE ( 'NONE', *, *, #254, .T. ) ;
#432 = FACE_OUTER_BOUND ( 'NONE', #410, .T. ) ;
#433 = ADVANCED_FACE ( 'NONE', ( #263 ), #271, .F. ) ;
#434 = ORIENTED_EDGE ( 'NONE', *, *, #254, .F. ) ;
#435 = DIRECTION ( 'NONE',  ( 0.000000000000000000, -0.000000000000000000, 1.000000000000000000 ) ) ;
#436 = DIRECTION ( 'NONE',  ( -0.000000000000000000, -1.000000000000000000, -0.000000000000000000 ) ) ;
#437 = ORIENTED_EDGE ( 'NONE', *, *, #614, .F. ) ;
#438 = CIRCLE ( 'NONE', #589, 1.599999999999934808 ) ;
#439 = FACE_OUTER_BOUND ( 'NONE', #391, .T. ) ;
#440 = DIRECTION ( 'NONE',  ( 0.000000000000000000, 1.000000000000000000, -0.000000000000000000 ) ) ;
#441 = ADVANCED_FACE ( 'NONE', ( #413 ), #547, .F. ) ;
#442 = ORIENTED_EDGE ( 'NONE', *, *, #583, .F. ) ;
#443 = CARTESIAN_POINT ( 'NONE',  ( 412.2367889235231360, 1.199999999999999956, 0.000000000000000000 ) ) ;
#444 = EDGE_LOOP ( 'NONE', ( #346, #270, #45, #144 ) ) ;
#445 = CARTESIAN_POINT ( 'NONE',  ( 482.2367889235231360, 0.000000000000000000, 281.8817145493894145 ) ) ;
#446 = CYLINDRICAL_SURFACE ( 'NONE', #180, 1.599999999999934808 ) ;
#447 = AXIS2_PLACEMENT_3D ( 'NONE', #518, #52, #521 ) ;
#448 = VECTOR ( 'NONE', #152, 1000.000000000000000 ) ;
#449 = DIRECTION ( 'NONE',  ( -0.000000000000000000, -1.000000000000000000, -0.000000000000000000 ) ) ;
#450 = CARTESIAN_POINT ( 'NONE',  ( 479.5367889235231473, 1.199999999999999956, 282.9817145493894941 ) ) ;
#451 = EDGE_CURVE ( 'NONE', #290, #374, #174, .T. ) ;
#452 = CARTESIAN_POINT ( 'NONE',  ( 482.2367889235231360, 1.199999999999999956, 331.8817145493894145 ) ) ;
#453 = ORIENTED_EDGE ( 'NONE', *, *, #372, .F. ) ;
#454 = VECTOR ( 'NONE', #449, 1000.000000000000000 ) ;
#455 = LINE ( 'NONE', #117, #572 ) ;
#456 = VECTOR ( 'NONE', #476, 1000.000000000000000 ) ;
#457 = CARTESIAN_POINT ( 'NONE',  ( 452.1887549754176234, 1.199999999999999956, 8.367172787504859054E-13 ) ) ;
#458 = CYLINDRICAL_SURFACE ( 'NONE', #541, 1.599999999999934808 ) ;
#459 = CYLINDRICAL_SURFACE ( 'NONE', #236, 1.599999999999934808 ) ;
#460 = ORIENTED_EDGE ( 'NONE', *, *, #514, .F. ) ;
#461 = CARTESIAN_POINT ( 'NONE',  ( 414.9367889235230678, 1.199999999999999956, 284.5817145493894031 ) ) ;
#462 = EDGE_LOOP ( 'NONE', ( #9, #321, #419, #137 ) ) ;
#463 = DIRECTION ( 'NONE',  ( -0.000000000000000000, -1.000000000000000000, -0.000000000000000000 ) ) ;
#464 = AXIS2_PLACEMENT_3D ( 'NONE', #322, #550, #22 ) ;
#465 = ORIENTED_EDGE ( 'NONE', *, *, #102, .F. ) ;
#466 = CARTESIAN_POINT ( 'NONE',  ( 414.9367889235230678, 0.000000000000000000, 286.1817145493893690 ) ) ;
#467 = CARTESIAN_POINT ( 'NONE',  ( 479.5367889235231473, 0.000000000000000000, 284.5817145493894031 ) ) ;
#468 = ORIENTED_EDGE ( 'NONE', *, *, #588, .F. ) ;
#469 = LINE ( 'NONE', #37, #43 ) ;
#470 = EDGE_LOOP ( 'NONE', ( #373, #75 ) ) ;
#471 = LINE ( 'NONE', #429, #76 ) ;
#472 = CARTESIAN_POINT ( 'NONE',  ( 479.5367889235231473, 1.199999999999999956, 286.1817145493893690 ) ) ;
#473 = COLOUR_RGB ( '',0.7921568627450980005, 0.8196078431372548767, 0.9333333333333333481 ) ;
#474 = ORIENTED_EDGE ( 'NONE', *, *, #345, .T. ) ;
#475 = CARTESIAN_POINT ( 'NONE',  ( 0.000000000000000000, 1.199999999999999956, 321.8817145493894714 ) ) ;
#476 = DIRECTION ( 'NONE',  ( -0.000000000000000000, -1.000000000000000000, -0.000000000000000000 ) ) ;
#477 = EDGE_CURVE ( 'NONE', #175, #606, #601, .T. ) ;
#478 = ORIENTED_EDGE ( 'NONE', *, *, #307, .F. ) ;
#479 = LINE ( 'NONE', #611, #193 ) ;
#480 = DIRECTION ( 'NONE',  ( 0.000000000000000000, 1.000000000000000000, -0.000000000000000000 ) ) ;
#481 = EDGE_LOOP ( 'NONE', ( #282, #520, #485, #561 ) ) ;
#482 = DIRECTION ( 'NONE',  ( 0.000000000000000000, 0.000000000000000000, -1.000000000000000000 ) ) ;
#483 = LINE ( 'NONE', #191, #56 ) ;
#484 = CIRCLE ( 'NONE', #399, 1.599999999999934808 ) ;
#485 = ORIENTED_EDGE ( 'NONE', *, *, #233, .T. ) ;
#486 = CARTESIAN_POINT ( 'NONE',  ( 414.9367889235230678, 1.199999999999999956, 286.1817145493893690 ) ) ;
#487 = ORIENTED_EDGE ( 'NONE', *, *, #356, .F. ) ;
#488 = CARTESIAN_POINT ( 'NONE',  ( 448.1887549754170550, 1.199999999999999956, 291.8817145493894145 ) ) ;
#489 = DIRECTION ( 'NONE',  ( -0.000000000000000000, -1.000000000000000000, -0.000000000000000000 ) ) ;
#490 = DIRECTION ( 'NONE',  ( 0.000000000000000000, 1.000000000000000000, -0.000000000000000000 ) ) ;
#491 = STYLED_ITEM ( 'NONE', ( #406 ), #405 ) ;
#492 = DIRECTION ( 'NONE',  ( 1.000000000000000000, 0.000000000000000000, 7.930164461608260440E-16 ) ) ;
#493 = DIRECTION ( 'NONE',  ( -0.000000000000000000, -1.000000000000000000, -0.000000000000000000 ) ) ;
#494 = ORIENTED_EDGE ( 'NONE', *, *, #372, .T. ) ;
#495 = ADVANCED_FACE ( 'NONE', ( #220 ), #551, .F. ) ;
#496 = CARTESIAN_POINT ( 'NONE',  ( 0.000000000000000000, 1.199999999999999956, 0.000000000000000000 ) ) ;
#497 = CARTESIAN_POINT ( 'NONE',  ( 479.5367889235231473, 1.199999999999999956, 329.1817145493894259 ) ) ;
#498 = EDGE_LOOP ( 'NONE', ( #353, #114, #596, #557 ) ) ;
#499 = DIRECTION ( 'NONE',  ( 0.000000000000000000, 0.000000000000000000, 1.000000000000000000 ) ) ;
#500 = ORIENTED_EDGE ( 'NONE', *, *, #79, .T. ) ;
#501 = LINE ( 'NONE', #328, #265 ) ;
#502 = ORIENTED_EDGE ( 'NONE', *, *, #585, .T. ) ;
#503 = ORIENTED_EDGE ( 'NONE', *, *, #565, .F. ) ;
#504 = FACE_BOUND ( 'NONE', #31, .T. ) ;
#505 = VECTOR ( 'NONE', #165, 1000.000000000000000 ) ;
#506 = AXIS2_PLACEMENT_3D ( 'NONE', #69, #212, #269 ) ;
#507 = VECTOR ( 'NONE', #12, 1000.000000000000000 ) ;
#508 = EDGE_LOOP ( 'NONE', ( #237, #48, #465, #119 ) ) ;
#509 = EDGE_LOOP ( 'NONE', ( #502, #267, #185, #172 ) ) ;
#510 = ORIENTED_EDGE ( 'NONE', *, *, #85, .F. ) ;
#511 = PLANE ( 'NONE',  #298 ) ;
#512 = EDGE_LOOP ( 'NONE', ( #580, #453, #178, #556 ) ) ;
#513 = LINE ( 'NONE', #475, #125 ) ;
#514 = EDGE_CURVE ( 'NONE', #617, #278, #455, .T. ) ;
#515 = DIRECTION ( 'NONE',  ( 0.000000000000000000, 0.000000000000000000, 1.000000000000000000 ) ) ;
#516 = ADVANCED_FACE ( 'NONE', ( #73 ), #320, .F. ) ;
#517 = ORIENTED_EDGE ( 'NONE', *, *, #345, .F. ) ;
#518 = CARTESIAN_POINT ( 'NONE',  ( 414.9367889235230678, 0.000000000000000000, 284.5817145493894031 ) ) ;
#519 = LINE ( 'NONE', #472, #456 ) ;
#520 = ORIENTED_EDGE ( 'NONE', *, *, #357, .T. ) ;
#521 = DIRECTION ( 'NONE',  ( 0.000000000000000000, 0.000000000000000000, 1.000000000000000000 ) ) ;
#522 = DIRECTION ( 'NONE',  ( 0.000000000000000000, 1.000000000000000000, -0.000000000000000000 ) ) ;
#523 = EDGE_LOOP ( 'NONE', ( #286, #422, #59, #607 ) ) ;
#524 = CARTESIAN_POINT ( 'NONE',  ( 414.9367889235230678, 0.000000000000000000, 284.5817145493894031 ) ) ;
#525 = EDGE_CURVE ( 'NONE', #124, #224, #113, .T. ) ;
#526 =( NAMED_UNIT ( * ) SI_UNIT ( $, .STERADIAN. ) SOLID_ANGLE_UNIT ( ) );
#527 = VERTEX_POINT ( 'NONE', #608 ) ;
#528 = DIRECTION ( 'NONE',  ( -0.000000000000000000, -1.000000000000000000, -0.000000000000000000 ) ) ;
#529 = AXIS2_PLACEMENT_3D ( 'NONE', #587, #16, #308 ) ;
#530 = EDGE_LOOP ( 'NONE', ( #293, #602, #434, #500 ) ) ;
#531 = CIRCLE ( 'NONE', #62, 1.599999999999934808 ) ;
#532 = LINE ( 'NONE', #533, #351 ) ;
#533 = CARTESIAN_POINT ( 'NONE',  ( 482.2367889235231360, 1.199999999999999956, 281.8817145493894145 ) ) ;
#534 = ADVANCED_FACE ( 'NONE', ( #162 ), #458, .F. ) ;
#535 = APPLICATION_CONTEXT ( 'automotive_design' ) ;
#536 = PRODUCT_RELATED_PRODUCT_CATEGORY ( 'part', '', ( #262 ) ) ;
#537 = DIRECTION ( 'NONE',  ( 0.000000000000000000, 1.000000000000000000, -0.000000000000000000 ) ) ;
#538 = PRODUCT_DEFINITION_CONTEXT ( 'detailed design', #281, 'design' ) ;
#539 = DIRECTION ( 'NONE',  ( 0.000000000000000000, 0.000000000000000000, 1.000000000000000000 ) ) ;
#540 = VECTOR ( 'NONE', #60, 1000.000000000000000 ) ;
#541 = AXIS2_PLACEMENT_3D ( 'NONE', #166, #226, #177 ) ;
#542 = CARTESIAN_POINT ( 'NONE',  ( 479.5367889235231473, 0.000000000000000000, 327.5817145493895168 ) ) ;
#543 =( LENGTH_UNIT ( ) NAMED_UNIT ( * ) SI_UNIT ( .MILLI., .METRE. ) );
#544 = VERTEX_POINT ( 'NONE', #375 ) ;
#545 = DIRECTION ( 'NONE',  ( 0.000000000000000000, 0.000000000000000000, -1.000000000000000000 ) ) ;
#546 = LINE ( 'NONE', #120, #505 ) ;
#547 = PLANE ( 'NONE',  #414 ) ;
#548 = AXIS2_PLACEMENT_3D ( 'NONE', #23, #218, #68 ) ;
#549 = EDGE_CURVE ( 'NONE', #260, #40, #128, .T. ) ;
#550 = DIRECTION ( 'NONE',  ( -0.000000000000000000, -1.000000000000000000, -0.000000000000000000 ) ) ;
#551 = PLANE ( 'NONE',  #548 ) ;
#552 = EDGE_LOOP ( 'NONE', ( #610, #300, #86, #478 ) ) ;
#553 = DIRECTION ( 'NONE',  ( -1.850371707708592788E-15, 0.000000000000000000, 1.000000000000000000 ) ) ;
#554 = CARTESIAN_POINT ( 'NONE',  ( 412.2367889235231360, 1.199999999999999956, 331.8817145493893577 ) ) ;
#555 = EDGE_CURVE ( 'NONE', #381, #82, #619, .T. ) ;
#556 = ORIENTED_EDGE ( 'NONE', *, *, #477, .T. ) ;
#557 = ORIENTED_EDGE ( 'NONE', *, *, #35, .F. ) ;
#558 = DIRECTION ( 'NONE',  ( 7.930164461608260440E-16, 0.000000000000000000, -1.000000000000000000 ) ) ;
#559 = AXIS2_PLACEMENT_3D ( 'NONE', #368, #558, #318 ) ;
#560 = ADVANCED_FACE ( 'NONE', ( #335, #430, #292, #50, #380, #139 ), #241, .F. ) ;
#561 = ORIENTED_EDGE ( 'NONE', *, *, #195, .F. ) ;
#562 = PLANE ( 'NONE',  #99 ) ;
#563 = LINE ( 'NONE', #131, #108 ) ;
#564 = ADVANCED_BREP_SHAPE_REPRESENTATION ( 'SERVO COVER', ( #405, #158 ), #211 ) ;
#565 = EDGE_CURVE ( 'NONE', #82, #148, #383, .T. ) ;
#566 = EDGE_LOOP ( 'NONE', ( #72, #295 ) ) ;
#567 = DIRECTION ( 'NONE',  ( -1.000000000000000000, 0.000000000000000000, 0.000000000000000000 ) ) ;
#568 = CARTESIAN_POINT ( 'NONE',  ( 479.5367889235231473, 0.000000000000000000, 329.1817145493894259 ) ) ;
#569 = ORIENTED_EDGE ( 'NONE', *, *, #571, .F. ) ;
#570 = DIRECTION ( 'NONE',  ( 0.000000000000000000, 0.000000000000000000, 1.000000000000000000 ) ) ;
#571 = EDGE_CURVE ( 'NONE', #396, #260, #377, .T. ) ;
#572 = VECTOR ( 'NONE', #323, 1000.000000000000000 ) ;
#573 = AXIS2_PLACEMENT_3D ( 'NONE', #568, #143, #612 ) ;
#574 = VERTEX_POINT ( 'NONE', #184 ) ;
#575 = CARTESIAN_POINT ( 'NONE',  ( 482.2367889235231360, 1.199999999999999956, 281.8817145493894145 ) ) ;
#576 = DIRECTION ( 'NONE',  ( 0.000000000000000000, 0.000000000000000000, -1.000000000000000000 ) ) ;
#577 = ORIENTED_EDGE ( 'NONE', *, *, #90, .T. ) ;
#578 = CARTESIAN_POINT ( 'NONE',  ( 479.5367889235231473, 0.000000000000000000, 282.9817145493894941 ) ) ;
#579 = PRODUCT_CONTEXT ( 'NONE', #535, 'mechanical' ) ;
#580 = ORIENTED_EDGE ( 'NONE', *, *, #242, .T. ) ;
#581 = FACE_OUTER_BOUND ( 'NONE', #32, .T. ) ;
#582 = ORIENTED_EDGE ( 'NONE', *, *, #222, .T. ) ;
#583 = EDGE_CURVE ( 'NONE', #148, #189, #181, .T. ) ;
#584 = CARTESIAN_POINT ( 'NONE',  ( 414.9367889235230678, 1.199999999999999956, 329.1817145493894259 ) ) ;
#585 = EDGE_CURVE ( 'NONE', #151, #369, #563, .T. ) ;
#586 = CARTESIAN_POINT ( 'NONE',  ( 452.1887549754170550, 1.199999999999999956, 291.8817145493894145 ) ) ;
#587 = CARTESIAN_POINT ( 'NONE',  ( 479.5367889235231473, 0.000000000000000000, 284.5817145493894031 ) ) ;
#588 = EDGE_CURVE ( 'NONE', #176, #141, #256, .T. ) ;
#589 = AXIS2_PLACEMENT_3D ( 'NONE', #388, #142, #96 ) ;
#590 = CARTESIAN_POINT ( 'NONE',  ( 479.5367889235231473, 1.199999999999999956, 329.1817145493894259 ) ) ;
#591 = AXIS2_PLACEMENT_3D ( 'NONE', #443, #199, #395 ) ;
#592 = CARTESIAN_POINT ( 'NONE',  ( 448.1887549754170550, 0.000000000000000000, 291.8817145493894145 ) ) ;
#593 = CYLINDRICAL_SURFACE ( 'NONE', #387, 1.599999999999934808 ) ;
#594 = CARTESIAN_POINT ( 'NONE',  ( 479.5367889235231473, 1.199999999999999956, 329.1817145493894259 ) ) ;
#595 = DIRECTION ( 'NONE',  ( 0.000000000000000000, 0.000000000000000000, -1.000000000000000000 ) ) ;
#596 = ORIENTED_EDGE ( 'NONE', *, *, #514, .T. ) ;
#597 = DIRECTION ( 'NONE',  ( 1.000000000000000000, -0.000000000000000000, 1.850371707708592788E-15 ) ) ;
#598 = EDGE_CURVE ( 'NONE', #189, #606, #483, .T. ) ;
#599 = DIRECTION ( 'NONE',  ( -0.000000000000000000, -1.000000000000000000, -0.000000000000000000 ) ) ;
#600 = VECTOR ( 'NONE', #553, 1000.000000000000000 ) ;
#601 = LINE ( 'NONE', #554, #427 ) ;
#602 = ORIENTED_EDGE ( 'NONE', *, *, #451, .F. ) ;
#603 = ORIENTED_EDGE ( 'NONE', *, *, #329, .T. ) ;
#604 = DIRECTION ( 'NONE',  ( -1.850371707708592788E-15, 0.000000000000000000, 1.000000000000000000 ) ) ;
#605 = EDGE_LOOP ( 'NONE', ( #57, #123 ) ) ;
#606 = VERTEX_POINT ( 'NONE', #389 ) ;
#607 = ORIENTED_EDGE ( 'NONE', *, *, #409, .F. ) ;
#608 = CARTESIAN_POINT ( 'NONE',  ( 479.5367889235231473, 1.199999999999999956, 330.7817145493893918 ) ) ;
#609 = EDGE_CURVE ( 'NONE', #141, #224, #519, .T. ) ;
#610 = ORIENTED_EDGE ( 'NONE', *, *, #571, .T. ) ;
#611 = CARTESIAN_POINT ( 'NONE',  ( 0.000000000000000000, 0.000000000000000000, 291.8817145493894145 ) ) ;
#612 = DIRECTION ( 'NONE',  ( 0.000000000000000000, 0.000000000000000000, 1.000000000000000000 ) ) ;
#613 = VECTOR ( 'NONE', #436, 1000.000000000000000 ) ;
#614 = EDGE_CURVE ( 'NONE', #384, #132, #140, .T. ) ;
#615 = EDGE_LOOP ( 'NONE', ( #5, #311, #420, #510 ) ) ;
#616 = DIRECTION ( 'NONE',  ( 0.000000000000000000, 0.000000000000000000, 1.000000000000000000 ) ) ;
#617 = VERTEX_POINT ( 'NONE', #42 ) ;
#618 = PLANE ( 'NONE',  #274 ) ;
#619 = LINE ( 'NONE', #84, #14 ) ;
ENDSEC;
END-ISO-10303-21;
